# xmcd
#
# Track frame offsets: 
#        150
#        15275
#        32790
#        44745
#        58952
#        73100
#        95167
#        109975
#        121400
#        134035
#        153452
#        165005
#        178955
#        197155
#        209027
#        229260
#        244752
#        259420
#        274857
#        293815
#
# Disc length: 4186 seconds
#
# Revision: 3
# Processed by: cddbd v1.5PL3 Copyright (c) Steve Scherf et al.
# Submitted via: ExactAudioCopy v0.90b4
#
DISCID=40105814
DTITLE=Various Artist - Vale a pena ouvir de novo - Internacional - V
DTITLE=ol.2 
DYEAR=1996
DGENRE=Misc
TTITLE0=Ancora Com Te [Patrick Dimon]
TTITLE1=Reflections Of My Life [The Marmalade]
TTITLE2=This Is My Song [The Curtis Brothers]
TTITLE3=O Sole Mio [Enrico Pallesi]
TTITLE4=L'Uomo Che Non Sapeva Amare [Nico Fidenco]
TTITLE5=Solitaire [Neil Sedaka]
TTITLE6=Guantanamera [Trini Lopez]
TTITLE7=Don't Let It Die [Hurrican Smith]
TTITLE8=Aline [Christophe]
TTITLE9=Feelings [Patrick Dimon]
TTITLE10=Que C'est Triste Venice [Charlez Aznavour]
TTITLE11=A Casa de Irene [Nico Fidenco]
TTITLE12=All By My Self [Shirley Bassey]
TTITLE13=Love Is a Many Esplendored Thing [Nat King Cole]
TTITLE14=We Shall Dance [Demis Roussos]
TTITLE15=Something [Shirley Bassey]
TTITLE16=Roberta [Pepino di Capri]
TTITLE17=Unforgetable [Nat King Cole]
TTITLE18=I Can't Stop Loving You [Ray Charles]
TTITLE19=Pigeon Without a Dove [Patrick Dimon]
EXTD=0\n\n\n
EXTT0=
EXTT1=
EXTT2=
EXTT3=
EXTT4=
EXTT5=
EXTT6=
EXTT7=
EXTT8=
EXTT9=
EXTT10=
EXTT11=
EXTT12=
EXTT13=
EXTT14=
EXTT15=
EXTT16=
EXTT17=
EXTT18=
EXTT19=
PLAYORDER=
